<?xml version="1.0" standalone="no"?><!DOCTYPE svg PUBLIC "-//W3C//DTD SVG 1.1//EN" "http://www.w3.org/Graphics/SVG/1.1/DTD/svg11.dtd"><svg class="icon" height="512" viewBox="0 0 1029 1024" version="1.1" xmlns="http://www.w3.org/2000/svg"><path d="M722.711131 631.331278l9.39548 70.58616s1.353889 7.106641-7.806576 8.460529c-7.173058 1.057566-10.703388-3.417931-11.321579-6.636611-2.677124-13.891413-6.784773-41.403463-10.79535-69.799371-31.839385 8.603582-55.299985 37.607464-55.299985 72.159736 0 41.321718 33.499815 74.826643 74.826643 74.826643 41.316609 0 74.816425-33.499815 74.816425-74.826643-0.005109-40.969196-32.968478-74.223779-73.815058-74.770443zM307.09782 698.029477c-0.005109-9.477224 21.008272-7.673741 21.008272-7.673742h55.345966c-7.239475-33.750157-37.21407-59.075548-73.12534-59.075547-41.326827 0-74.821534 33.510033-74.821534 74.826642 0 41.321718 33.494706 74.826643 74.821534 74.826643 35.936816 0 65.931847-25.345826 73.145776-59.131747-19.286534 0.010218-38.378925 0.030654-55.366402 0.071527-7.428509 0.015327-21.008272-10.69317-21.008272-23.843776z" fill="#FF9900" /><path d="M516.010577 2.201986c-282.160714 0-510.901562 228.735738-510.901561 510.901561 0 282.160714 228.740847 510.901562 510.901561 510.901562 282.165823 0 510.901562-228.740847 510.901562-510.901562s-228.735738-510.901562-510.901562-510.901561zM442.353899 209.842598c46.844564-16.588974 69.75339 8.92545 76.124333 25.831183 3.704036 9.824637-7.351873 9.681585-10.84644 9.702021-35.017193 0.219688-35.517877 24.722527-31.338702 33.99539 4.174066 9.272863 0.189034 14.468732-21.396558 14.7906-32.615956 0.485356-37.959986-5.13967-42.86975-33.326109-1.50716-8.680218 0.822552-40.540039 30.327117-50.993085z m36.611206 58.952932c-0.945168-15.613152 20.298119-18.979993 24.977977-19.031084 2.319493-0.025545 13.150606 4.439735 8.077354 35.793764-4.449953 27.476286-32.661937 26.592426-47.794841 26.755915-20.962291 0.219688-37.6279-17.467724-24.232061-15.20954 15.597825 2.626034 28.513416 1.55825 34.920122-1.992516 12.338273-6.835863 4.822911-13.477583 4.051449-26.316539z m-54.094257 452.995978c-7.653305 56.439296-55.99992 99.952782-114.54413 99.952782-63.867804 0-115.642568-51.774764-115.642569-115.63746s51.774764-115.642568 115.642569-115.642568c58.513556 0 106.844844 43.482832 114.533912 99.886364h53.654882c-28.717777-27.113546-67.760874-65.339201-84.620626-88.058993-7.152622-9.65604 48.034965-26.26034-3.489458-26.510682-36.529462-0.183925-179.36732 0-181.691922 0-14.346116 0 24.778726-40.202844 35.333952-50.323804 7.346764-7.06066 24.840034-8.128444 24.840034-8.128444l111.069999 0.199252 6.938044 0.122616a38.266527 38.266527 0 0 0 14.26948 5.619917c55.167151 10.136287 57.992436 11.914224 76.374675 23.450382l3.499675 2.196877c44.964446 28.02806 27.992297 66.861687 10.01878 107.973936-1.047348 2.406346-2.104914 4.812693-3.152263 7.239475-4.710512 10.887312-7.765704 19.317188-9.375043 26.224577h0.076635c-3.285097 14.060011-0.577319 21.876805 6.386269 31.476645-15.797076-0.020436-37.065908-0.035763-60.122895-0.040872z m107.851319 18.796069c-2.442109 5.456429-6.8001 8.726199-11.653664 8.726198h-0.005109c-5.246959 0-10.826004-3.566093-16.129163-10.304884a548.044105 548.044105 0 0 0-7.872993-9.748002 323.380252 323.380252 0 0 1-5.982657-7.4234h-0.010218l-0.393394-0.531337c-0.730589-0.955386-1.420306-1.890336-2.064042-2.794632-0.26056-0.36274-0.495575-0.730589-0.740808-1.08822a50.247169 50.247169 0 0 1-2.12535-3.417932 47.564935 47.564935 0 0 1-1.639994-3.295315 26.975602 26.975602 0 0 1-0.960495-2.69756c-0.061308-0.204361-0.143052-0.408721-0.199252-0.613082a24.788944 24.788944 0 0 1-0.684608-3.53033c-0.020436-0.173707-0.020436-0.367849-0.035763-0.546664a27.057347 27.057347 0 0 1-0.122616-3.188026c0.005109-0.378067 0.040872-0.781679 0.061308-1.175074a37.36734 37.36734 0 0 1 0.500683-4.368208l0.040872-0.270778a1.277254 1.277254 0 0 0-0.086853-0.081744c1.2466-7.00446 4.40908-15.832839 9.737784-28.171112 1.042239-2.416564 2.094696-4.822911 3.147154-7.224148 17.999062-41.193993 36.616315-83.777638-11.898898-114.023011l-3.484348-2.191767c-18.63258-11.699646-21.994312-13.809669-78.075977-24.114554a40.805708 40.805708 0 0 1-2.830395-0.643736l0.388285 0.005109c-11.812044-3.034755-20.195939-11.46974-24.865579-25.258973-15.419009-45.51622 13.150606-131.945437 38.598613-160.039914 8.036482-8.87436 22.219109-14.601567 36.141177-14.601567 8.189752 0 23.30222 2.043606 32.432031 15.781749 4.485716 6.754119 8.128444 17.457506 6.631502 34.061807-1.052457-1.696193-1.992516-3.285097-2.784413-4.690076-10.463264-18.591708-21.243287-22.494996-28.426563-22.494996-5.895804 0-10.064761 2.574944-11.224507 3.37706-1.34878 0.57221-5.512628 2.733323-7.515362 8.501402-3.591638 10.355975 1.578686 26.004889 15.378137 46.512478a264.887133 264.887133 0 0 0 17.549468 23.271566c-8.475857 17.656758-20.022232 42.895295-6.513995 51.314953 7.970064 4.965963 12.828738 7.62776 17.523924 10.202704 7.530689 4.128085 14.642439 8.016046 33.801247 21.284159 57.685895 39.957611 43.830245 69.513266 30.424188 98.103318-1.527596 3.26977-3.121609 6.662156-4.557242 9.967689-2.717996 6.268762-6.023529 12.782757-9.221773 19.087283-13.646181 26.924512-27.757282 54.773756-6.350506 78.699276 0.694826 0.771461 1.226164 1.568468 1.818809 2.350147 0.20947 0.280996 0.444484 0.551774 0.638627 0.83277a31.798513 31.798513 0 0 1 2.094697 3.412822c0.454702 0.853206 0.88386 1.701302 1.24149 2.549399l0.051091 0.137944c3.21868 7.78614 2.503418 15.337265 0.25545 20.349209z m188.987597 81.161822c-63.872913 0-115.642568-51.774764-115.642568-115.63746 0-55.22335 38.71612-101.378197 90.485775-112.863264-3.836871-28.273292-6.708138-50.390221-6.708137-50.390221l-23.04677 32.447359c-23.808013 31.931348-105.664661 146.577658-105.664661 146.577658-3.182917 1.532705-12.752103 1.742174-22.571631 1.466287-1.236382-5.144779-3.836871-10.53479-8.389003-15.62337-19.199681-21.452757-6.442469-46.619767 7.060659-73.273502 3.239116-6.365833 6.570194-12.951355 9.34439-19.337624 1.410088-3.26977 2.978556-6.616175 4.495933-9.8604 11.776281-25.115921 24.896233-53.133762-11.479958-87.66049l2.140678-0.122616s7.208821-3.121609 32.74879-13.569546c13.252787-5.420666 37.929332-13.012663 41.342154-22.816863 3.172699-9.094048-14.448296-22.188455-14.448296-22.188455s-1.364107 0.924732-3.586529 2.401237a17.248037 17.248037 0 0 1-1.650212 9.037849c-2.196877 4.572569-5.798733 7.413182-9.768438 7.760594a10.013671 10.013671 0 0 1-0.786788 0.035763h-0.010218l-0.137944 2.319494v-2.324603c-4.51637 0-9.017413-0.352522-13.498019-0.894077-8.067136 4.470389-15.347483 7.801467-18.034825 7.035114-5.420666-1.553141-7.934301-7.459163-7.11175-12.925809-25.427571-8.905014-49.654523-26.505573-71.224786-51.876945l-0.030654 0.066417c-0.495575-0.582428-0.960495-1.226164-1.450961-1.8137a248.936786 248.936786 0 0 1-5.635244-7.024897c-0.894078-1.159747-1.798373-2.293948-2.682233-3.479239a281.327945 281.327945 0 0 1-7.234366-10.146505c-0.173707-0.26056-0.357631-0.495575-0.531338-0.751026-15.960565-23.72116-16.900624-35.962361-14.877454-42.052307 1.512269-4.557242 4.792257-5.757861 4.904655-5.793624l0.408722-0.132834 0.332086-0.265669c0.025545-0.015327 1.701302-1.241491 4.40908-1.997625l0.163489-0.045981c0.853206-0.229906 1.808592-0.393394 2.85083-0.475139 0.076635-0.005109 0.127725-0.025545 0.199252-0.030654 0.245233-0.015327 0.505793-0.020436 0.756134-0.025545l0.178816-0.010218c8.455421 0 16.834206 6.922716 24.206516 20.022232 1.931208 3.428149 4.638986 7.801467 7.975173 12.685686 9.369935 13.727925 23.762032 31.517517 40.386769 44.055042 12.864501 9.702021 29.300205 16.093399 42.512119 21.22796l3.157371 1.231272c9.70713-6.192127 19.741236-11.147872 25.820965-10.851549 19.838308 0.965604 50.318695 28.830175 63.091234 39.278112l16.890406-3.397495c6.498668-1.333453 11.454413 1.149529 15.25552 5.696552 13.114843-20.012014 38.583286-26.761024 46.967181 13.421384 4.679858 22.408142 3.193135 52.536008-18.407783 54.789084a26.377848 26.377848 0 0 1-14.499387-2.605598l6.595739 49.542124c1.471396-0.056199 2.942793-0.107289 4.424408-0.107289 63.862695 0 115.63235 51.779873 115.63235 115.642568s-51.764546 115.63235-115.627241 115.632351z" fill="#FF9900" /></svg>